# xmcd CD database file
# Copyright (C) 1995-1998 Ti Kan
#
# Track frame offsets:
#	150
#	17925
#	47067
#	64790
#	82999
#	97238
#	128763
#	148434
#	169653
#	190533
#	235346
#	252719
#	290185
#	308118
#
# Disc length: 4472 seconds
#
# Revision: 1
# Processed by: cddbd v1.5.1PL0 Copyright (c) Steve Scherf et al.
# Submitted via: CDex 1.30
#
DISCID=d411760e
DTITLE=The Music Man 850-228-1778 (www.DiscUWant.com) - [www.DiscUWant.com] 
DTITLE=The Blues Will Bring You Home Vol. 1
DYEAR=2005
DGENRE=Blues
TTITLE0=I Need A Good Woman Bad - Latimore
TTITLE1=Living For The Weekend - The O'Jays
TTITLE2=Friday - Sir Charles
TTITLE3=Got To Give It Up - Marvin Gaye
TTITLE4=Fat Woman - James Payne
TTITLE5=Men All Paused - Klymaxx
TTITLE6=Disco Lady - Johnnie Taylor
TTITLE7=Rock Steady - The Whispers
TTITLE8=Slide On - Johnnie Taylor
TTITLE9=Candy Licker (Full-Length Edited Version) - Marvin Sease
TTITLE10=Let's Get It On - Marvin Gaye
TTITLE11=Tonight Is The Night (Full Version) - Betty Wright
TTITLE12=Work It In The Middle - Jackie Neal
TTITLE13=Slow Roll It - The Love Doctor
EXTD=YEAR: 2005  ID3G:   0
EXTT0=
EXTT1=
EXTT2=
EXTT3=
EXTT4=
EXTT5=
EXTT6=
EXTT7=
EXTT8=
EXTT9=
EXTT10=
EXTT11=
EXTT12=
EXTT13=
PLAYORDER=
